<?xml version="1.0" encoding="utf-8"?>
<!-- Generator: Adobe Illustrator 23.0.6, SVG Export Plug-In . SVG Version: 6.00 Build 0)  -->
<svg version="1.1" id="Calque_1" xmlns="http://www.w3.org/2000/svg" xmlns:xlink="http://www.w3.org/1999/xlink" x="0px" y="0px"
	 viewBox="0 0 98.54 15.81" style="enable-background:new 0 0 98.54 15.81;" xml:space="preserve">
<style type="text/css">
	.st0{fill:#CEA95E;}
</style>
<path id="R" class="st0" d="M0.01,0.51l7.81,0c0.27,0,0.54,0.01,0.81,0.06C8.8,0.6,8.99,0.64,9.19,0.69
	c0.59,0.15,2.13,0.48,3.26,1.94c0.9,1.16,1.09,2.39,1.13,2.95c0.04,0.48,0.12,1.71-0.61,3.02c-0.75,1.33-1.88,1.92-2.31,2.12
	l3.19,4.74H9.32l-2.66-3.96H4.31v3.96h-4.3V8.23h7.12c0.24,0,0.48-0.04,0.7-0.13C8,8.03,8.2,7.92,8.39,7.77
	C8.97,7.31,9.15,6.7,9.2,6.47c0.05-0.22,0.2-0.9-0.18-1.58C8.74,4.39,8.3,4.12,7.96,3.98c-0.25-0.1-0.51-0.15-0.78-0.15l-7.17,0
	V0.51z"/>
<rect x="17.39" y="0.4" class="st0" width="11.97" height="3.31"/>
<rect x="17.39" y="6.27" class="st0" width="11.97" height="3.19"/>
<rect x="17.39" y="12.14" class="st0" width="11.97" height="3.31"/>
<polygon class="st0" points="31.41,15.44 38.08,0.4 42.3,0.4 48.9,15.44 44.56,15.44 40.16,4.53 35.81,15.44 "/>
<path class="st0" d="M62.68,5.39l2.76-2.45c-0.1-0.11-0.25-0.26-0.43-0.43c-0.46-0.43-1.89-1.73-4.12-2.26
	c-0.89-0.21-3-0.56-5.33,0.43c-0.7,0.3-2.92,1.29-4.16,3.81c-1.51,3.09-0.32,6.03-0.16,6.42c1.34,3.17,4.31,4.21,4.96,4.43
	c0.36,0.13,3.59,1.2,6.82-0.47c0.92-0.47,1.59-1.04,2.02-1.46l0.4-0.43l-2.67-2.57c-0.16,0.19-0.39,0.44-0.7,0.69
	c-0.35,0.28-1.01,0.73-1.9,0.96c-0.49,0.12-1.8,0.45-3.09-0.25c-1.12-0.61-1.59-1.52-1.78-1.97c-0.12-0.3-0.7-2.67,0.45-4.48
	c0.7-1.1,1.53-1.4,1.86-1.51c0.6-0.19,1.59-0.45,2.88-0.07c0.23,0.07,0.44,0.15,0.62,0.24c0.58,0.28,1.08,0.71,1.48,1.22L62.68,5.39
	z"/>
<polygon id="T" class="st0" points="67.16,0.4 67.16,3.84 71.75,3.84 71.75,15.47 76.01,15.47 76.01,3.84 80.64,3.84 80.64,0.4 "/>
<polyline class="st0" points="94.45,0.4 88,15.47 92.18,15.47 98.66,0.4 94.45,0.4 "/>
<polyline class="st0" points="81.59,0.4 85.88,10.44 88.19,5.25 86.17,0.4 81.59,0.4 "/>
</svg>
